<mxfile host="app.diagrams.net" modified="2024-01-30T16:57:21.017Z" agent="Mozilla/5.0 (X11; Linux x86_64; rv:109.0) Gecko/20100101 Firefox/114.0" version="22.1.22" etag="YKEqvMqCa-AXmCwbQ31W" type="github">
  <diagram name="PÃ¡gina-1" id="1qWvVfx8WxdVZQZR35Iz">
    <mxGraphModel>
      <root>
        <mxCell id="0" />
        <mxCell id="1" parent="0" />
      </root>
    </mxGraphModel>
  </diagram>
</mxfile>
